    <svg
      xmlns="http://www.w3.org/2000/svg"
      width="32"
      height="32"
      viewBox="0 0 36 36"
      fill="none"
    >
      <path
        d="M11.6248 28.5022C10.5743 28.5023 9.56346 28.1016 8.79833 27.3819C8.03319 26.6622 7.57144 25.6777 7.50727 24.6292L7.49977 24.3772V22.5022C6.71426 22.5024 5.9424 22.2969 5.26093 21.9062C4.57946 21.5155 4.01213 20.9532 3.61534 20.2753C3.21855 19.5974 3.00613 18.8274 2.9992 18.0419C2.99227 17.2564 3.19107 16.4828 3.57583 15.798C3.96059 15.1132 4.51792 14.541 5.19239 14.1384C5.86686 13.7357 6.63497 13.5166 7.42036 13.5029C8.20576 13.4892 8.98106 13.6813 9.66919 14.0601C10.3573 14.4389 10.9343 14.9913 11.3428 15.6622C12.1328 15.2848 12.9887 15.0647 13.8628 15.0142L14.2498 15.0022H20.2498L20.6218 15.0127L20.9893 15.0427L21.1798 15.0682L21.3448 14.8177L21.5413 14.5507L18.8758 11.8852C17.8258 10.8352 17.7163 9.20322 18.5458 8.03022L18.7003 7.82922L18.8758 7.63722C19.9858 6.52722 21.7528 6.46722 22.9333 7.46172L23.1238 7.63722L31.2418 15.7567C32.064 16.579 32.6296 17.6225 32.8697 18.7603C33.1098 19.8981 33.0141 21.0811 32.5943 22.1655C32.1745 23.2499 31.4485 24.189 30.5048 24.8685C29.5612 25.5479 28.4404 25.9385 27.2788 25.9927L26.9413 25.9987L26.6683 25.9882L26.6293 26.0842C26.3402 26.7204 25.8943 27.2727 25.3334 27.6893C24.7724 28.106 24.1148 28.3733 23.4223 28.4662L23.1343 28.4947L22.8733 28.5022H11.6248ZM21.5323 9.22872C21.3995 9.09474 21.2213 9.01545 21.0329 9.00654C20.8445 8.99763 20.6597 9.05975 20.5149 9.1806C20.3701 9.30146 20.2759 9.47225 20.251 9.6592C20.226 9.84616 20.2722 10.0357 20.3803 10.1902L20.4673 10.2952L24.6793 14.5072L23.7223 15.4702C23.4063 15.7872 23.1448 16.1352 22.9378 16.5142L22.7923 16.8022L22.3933 17.6782L21.4663 17.4187C21.1704 17.3359 20.8668 17.2837 20.5603 17.2627L20.2483 17.2522H14.2498C13.1998 17.2522 12.2353 17.6122 11.4703 18.2122L11.2558 18.3922L11.0083 18.6322L10.8688 18.7822L10.7023 18.9832L10.5208 19.2337L10.4578 19.3297C10.3958 19.4247 10.3383 19.5227 10.2853 19.6237L10.1983 19.7917L10.1053 19.9972L10.0543 20.1232L9.97777 20.3362L9.89527 20.6122C9.85678 20.7591 9.82574 20.9077 9.80227 21.0577L9.78577 21.1822L9.75877 21.4657L9.74977 21.7522V24.3772C9.74977 25.3492 10.4878 26.1472 11.4328 26.2432L11.6248 26.2522H18.0013V25.8832C18.0015 25.4193 17.8298 24.9717 17.5192 24.627C17.2086 24.2824 16.7812 24.0651 16.3198 24.0172L16.1278 24.0082H14.6278C14.3407 24.0111 14.0634 23.9042 13.8526 23.7093C13.6418 23.5144 13.5135 23.2463 13.4939 22.9599C13.4744 22.6735 13.5651 22.3904 13.7474 22.1687C13.9298 21.947 14.19 21.8033 14.4748 21.7672L14.6278 21.7582H16.1278C17.1782 21.7582 18.1891 22.1589 18.9542 22.8786C19.7194 23.5983 20.1811 24.5828 20.2453 25.6312L20.2528 25.8832L20.2513 26.2522H22.8748C23.7613 26.2522 24.5158 25.6312 24.7018 24.7897L24.7318 24.6067L24.8818 23.3467L26.1148 23.6437C26.8876 23.8318 27.7001 23.7694 28.4351 23.4654C29.1701 23.1614 29.7893 22.6315 30.2034 21.9525C30.6175 21.2734 30.805 20.4803 30.7387 19.6877C30.6724 18.8951 30.3559 18.1441 29.8348 17.5432L29.6518 17.3482L21.5323 9.22872ZM7.49977 15.7537C6.92435 15.7573 6.37217 15.9813 5.95679 16.3795C5.54142 16.7778 5.2944 17.32 5.26655 17.8948C5.23869 18.4695 5.43212 19.0331 5.80704 19.4697C6.18196 19.9062 6.70989 20.1825 7.28227 20.2417L7.49977 20.2507L7.67077 20.2432L7.67827 20.2057C7.73127 19.9817 7.79427 19.7627 7.86727 19.5487L8.01277 19.1662L8.17177 18.8122L8.25727 18.6427L8.45227 18.2917L8.58427 18.0817L8.80177 17.7667L8.91277 17.6197L9.07477 17.4187L9.26827 17.1982L9.49327 16.9627C9.17827 16.3627 8.60827 15.9277 7.93777 15.7957L7.71127 15.7627L7.49977 15.7537Z"
        fill="black"
        fillOpacity="0.6"
      />
      <path
        d="M9.5625 5.625H15.1875M4.5 10.125H12.9375"
        stroke="black"
        strokeOpacity="0.6"
        strokeWidth="2.25"
        strokeLinecap="round"
      />
    </svg>