<svg
      xmlns="http://www.w3.org/2000/svg"
      width="32"
      height="32"
      viewBox="0 0 32 32"
      color="currentColor"
      fill="currentColor"
    >
      <path
        d="M14.842 9.16016C16.3138 9.16023 17.7491 9.61869 18.9484 10.4719C20.1477 11.325 21.0515 12.5305 21.5343 13.9209L21.6209 14.1898L21.6716 14.3559H24.3601C25.1679 14.3562 25.9452 14.6645 26.5335 15.2181C27.1219 15.7717 27.4769 16.5288 27.5262 17.3352L27.532 17.5278V18.6817C27.5317 19.1883 27.341 19.6762 26.9978 20.0487C26.6545 20.4213 26.1838 20.6512 25.6789 20.6928L25.5139 20.6986H23.6378L23.9158 21.3725C24.1081 21.8394 24.1184 22.3614 23.9448 22.8356C23.7711 23.3098 23.4261 23.7017 22.9778 23.934L22.8197 24.0078C22.6367 24.0825 22.444 24.1307 22.2474 24.1509L22.0501 24.1602H19.9882C19.6357 24.16 19.2894 24.0675 18.9838 23.892C18.6781 23.7165 18.4237 23.4641 18.2459 23.1598L18.1628 23.0017L17.5409 21.6828L17.6032 21.6748C15.9878 21.8894 14.3528 21.9148 12.7328 21.7509L12.1593 21.6852L11.542 22.9959C11.3789 23.3426 11.1206 23.6357 10.7972 23.841C10.4737 24.0463 10.0986 24.1554 9.71547 24.1555H7.63393C7.30243 24.1554 6.97606 24.0737 6.68364 23.9175C6.39122 23.7614 6.14175 23.5356 5.95723 23.2602C5.77272 22.9848 5.65885 22.6682 5.62567 22.3384C5.5925 22.0086 5.64103 21.6756 5.767 21.369L6.26662 20.1575C5.7134 19.8247 5.25578 19.3544 4.93832 18.7922C4.62086 18.2301 4.45437 17.5954 4.45508 16.9498C4.45537 16.7408 4.53123 16.5391 4.66865 16.3817C4.80608 16.2244 4.99579 16.122 5.20277 16.0936L5.32046 16.0855H7.4897L8.06316 14.1898C8.50405 12.7351 9.40108 11.4609 10.6218 10.5552C11.8424 9.6495 13.322 9.16041 14.842 9.16016ZM22.6616 20.3444C21.7709 20.7021 20.8647 20.9963 19.9432 21.2271L19.3097 21.3759L19.7274 22.2644C19.7553 22.3243 19.803 22.3727 19.8624 22.4017L19.9235 22.4225L19.9882 22.4305H22.0501C22.0909 22.4305 22.1312 22.4218 22.1684 22.4051C22.2055 22.3883 22.2388 22.3639 22.2658 22.3333C22.2928 22.3028 22.3131 22.2669 22.3252 22.228C22.3374 22.189 22.3411 22.148 22.3362 22.1075L22.3166 22.0325L21.7651 20.6986H21.7155L22.1897 20.5279L22.6616 20.3444ZM7.0247 20.3444L7.4747 20.5198L7.92239 20.6825L7.36623 22.0278C7.34821 22.0717 7.34128 22.1194 7.34607 22.1666C7.35086 22.2138 7.36721 22.2591 7.39369 22.2984C7.42016 22.3378 7.45593 22.37 7.49784 22.3923C7.53974 22.4145 7.58649 22.4261 7.63393 22.4259H9.71547L9.78123 22.4179C9.82376 22.4081 9.8635 22.3887 9.89748 22.3614C9.93146 22.334 9.95878 22.2992 9.97739 22.2598L10.3916 21.3794L10.4424 21.3909C9.27524 21.1413 8.13177 20.7916 7.0247 20.3455M14.842 10.8909C13.7365 10.8913 12.6581 11.2338 11.7551 11.8716C10.852 12.5094 10.1686 13.4111 9.79854 14.4528L9.72008 14.6917L8.40931 19.0186L8.59739 19.0867C12.4857 20.4214 16.6994 20.4752 20.6205 19.2402L21.0889 19.0867L21.2759 19.0186L19.9651 14.6917C19.6566 13.6744 19.0522 12.7721 18.2291 12.0995C17.4059 11.4269 16.4011 11.0147 15.3428 10.9152L15.0935 10.8967L14.842 10.8909ZM6.79162 18.3909L6.96585 17.814L6.38085 17.8163L6.4097 17.8763C6.5097 18.0686 6.63777 18.2402 6.79162 18.3909ZM22.1955 16.0855L23.0678 18.9678L25.5139 18.969C25.5788 18.969 25.6417 18.9471 25.6926 18.9069C25.7434 18.8667 25.7793 18.8105 25.7943 18.7475L25.8024 18.6805V17.5278C25.8023 17.171 25.6698 16.8268 25.4307 16.5619C25.1916 16.297 24.8628 16.1302 24.5078 16.0936L24.3601 16.0867L22.1955 16.0855Z"/>
    </svg>